<?xml version="1.0" encoding="utf-8"?>
<!-- Generator: Adobe Illustrator 23.0.1, SVG Export Plug-In . SVG Version: 6.00 Build 0)  -->
<svg version="1.2" baseProfile="tiny" id="Слой_1"
	 xmlns="http://www.w3.org/2000/svg" xmlns:xlink="http://www.w3.org/1999/xlink" x="0px" y="0px"
	 viewBox="0 0 458.7150269 43.5625" xml:space="preserve">
<g>
	<g>
		<polygon points="26.2733994,0.6894 20.5116997,0.6894 28.3281078,13.8613005 35.2597008,13.8613005 37.7304001,10.2910004 
			32.0331993,0.6894 		"/>
		<polygon points="56.6621056,7.6855001 52.4804001,0.6894 44.6581993,0.6894 42.4628983,0.6894 34.5741997,0.6894 
			42.4628983,13.8613005 42.4628983,34.6483994 38.3456993,34.6483994 38.3456993,42.1953011 62.9081993,42.1953011 
			62.9081993,34.6483994 56.6621056,34.6483994 		"/>
		<polygon points="62.9081993,13.7870998 68.7381973,13.7870998 68.7381973,0.6894 55.0858994,0.6894 		"/>
		<path d="M93.572197,0h-2.3320007c-0.4804993,0-1.3046951,0.0722-1.3046951,0.0722l5.419899,9.1914005
			c1.5781937,1.0977001,5.1464996,4.3183994,5.1464996,12.4161005c0,12.0741978-6.7246017,13.3124981-6.7246017,13.3124981
			l4.8047028,8.0253029c10.4237976-2.1992035,16.1191101-10.7695007,16.1191101-21.4062023
			C114.7011108,9.4667997,107.0195007,0.414,93.572197,0z"/>
		<path d="M84.447197,21.7479992c0-11.8671989,6.3809128-12.6210995,7.5469131-12.6210995h0.6171875L87.3964005,0.414
			C76.4901962,2.3339,70.246109,10.7734003,70.246109,21.6797009c0,12.1406002,7.7518921,21.4745998,21.0624924,21.8827991
			h2.3338928l2.6036148-0.1328011l-5.0059128-8.3731003C90.3475952,34.8496017,84.447197,32.8613014,84.447197,21.7479992z"/>
		<path d="M13.9256992,11.2538996c0-2.8125,3.3594074-2.9491997,5.4200001-2.9491997h3.0858994l-4.8027-8.0254002
			c-0.4101982,0-2.6757917,0.0644-3.019599,0.0644C6.3104997,1.0996,0.5488,5.8339,0.5488,13.0389996
			c0,14.7461014,18.5195007,11.7989006,18.5195007,18.0410004c0,3.4278011-3.9101009,3.3613987-5.4199009,3.2930012
			l5.1464996,8.5741997c3.9101009,0,15.0937004-0.6836014,15.0937004-13.6522999
			C33.8885994,15.4355001,13.9256992,18.25,13.9256992,11.2538996z"/>
		<polygon points="439.9491882,13.7870998 439.9491882,0.6894 424.9217834,0.6894 432.8125,13.7870998 		"/>
		<polygon points="0,29.1581993 0,42.2635994 15.7753992,42.2635994 8.0233994,29.1581993 		"/>
		<polygon points="132.9492035,27.7187004 121.8339005,8.9882002 121.8339005,34.6483994 117.5820007,34.6483994 
			117.5820007,42.2635994 136.7245941,42.2635994 136.7245941,34.6483994 132.9492035,34.6483994 		"/>
		<polygon points="396.7284851,13.7870998 396.7284851,0.6894 381.7030945,0.6894 389.593689,13.7870998 		"/>
		<polygon points="203.3358917,13.7870998 203.3358917,0.6894 188.3125,0.6894 196.2031097,13.7870998 		"/>
		<polygon points="311.1815796,13.7870998 311.1815796,0.6894 296.1542969,0.6894 304.0448914,13.7870998 		"/>
		<polygon points="433.7753906,29.1581993 425.9549866,42.2635994 440.9765015,42.2635994 440.9765015,29.1581993 		"/>
		<path d="M337.7987976,0.6894c-1.2344055-0.0664-4.8731079,0-6.1073914,0L336.0135803,7.9589
			c4.804718,0,8.5078125,3.8418002,8.5078125,13.6523991c0,9.2637005-3.0877991,13.2383022-8.0957031,13.5137005
			l4.1152954,6.8632011c12.210907-1.3045998,18.2518921-7.8925018,18.2518921-20.4414005
			C358.7928772,8.5761003,351.3807983,1.7187001,337.7987976,0.6894z"/>
		<polygon points="297.1854858,42.2635994 312.2088928,42.2635994 312.2088928,29.1581993 305.0057983,29.1581993 		"/>
		<polygon points="333.6131897,8.3046999 329.0858765,0.6894 315.1582031,0.6894 315.1582031,8.3046999 319.4100952,8.3046999 
			319.4100952,34.6483994 315.1582031,34.6483994 315.1582031,42.2635994 338.1405945,42.2635994 333.6131897,34.6483994 		"/>
		<path d="M375.7323914,21.6112995c0-9.3983994,3.0214844-13.0351992,8.0292969-13.3065996L379.0975952,0.5507
			C367.5722046,2.1933,361.4647827,9.3319998,361.4647827,21.5468006c0,15.8417988,9.9453125,21.1953983,19.210907,21.1953983
			c4.390686,0,8.0917969-1.2343979,8.0917969-1.2343979l-4.3182983-7.2031021
			C379.0975952,34.3046989,375.7323914,31.2851009,375.7323914,21.6112995z"/>
		<polygon points="383.4881897,28.5410004 386.6424866,28.5410004 386.6424866,33.6855011 391.7890015,42.2635994 
			399.4725952,42.2635994 399.4725952,28.5410004 399.4745789,28.5410004 399.4745789,21.2656002 383.4881897,21.2656002 		"/>
		<polygon points="421.0116882,34.6483994 421.0116882,25.8672009 430.0682983,25.8672009 430.0682983,16.6718006 
			421.0116882,16.6718006 421.0116882,8.3046999 426.9121094,8.3046999 422.4530945,0.6894 402.5604858,0.6894 
			402.5604858,8.3046999 406.8125,8.3046999 406.8125,34.6483994 402.5604858,34.6483994 402.5604858,42.2635994 
			423.4159851,42.2635994 427.8710938,34.6483994 		"/>
		<polygon points="292.2460938,34.6483994 292.2460938,25.8672009 301.6445007,25.8672009 301.6445007,16.6718006 
			292.2460938,16.6718006 292.2460938,8.3046999 298.1463928,8.3046999 293.6854858,0.6894 270.0174866,0.6894 
			274.5467834,8.3046999 278.0448914,8.3046999 278.0448914,34.6483994 274.6152039,34.6483994 270.085907,42.2635994 
			294.648407,42.2635994 299.2441101,34.6483994 		"/>
		<polygon points="144.339798,8.3046999 148.5253906,8.3046999 148.5253906,15.9882002 159.5682983,34.4413986 
			159.5682983,8.3046999 163.753891,8.3046999 163.753891,0.6894 144.339798,0.6894 		"/>
		<polygon points="184.402298,34.6483994 184.402298,25.8672009 193.8006897,25.8672009 193.8006897,16.6718006 
			184.402298,16.6718006 184.402298,8.3046999 190.3045959,8.3046999 185.843689,0.6894 165.9491882,0.6894 165.9491882,8.3046999 
			170.1991882,8.3046999 170.1991882,34.6483994 165.9491882,34.6483994 165.9491882,42.2635994 186.7323914,42.2635994 
			191.3320007,34.6483994 		"/>
		<polygon points="121.8339005,0.6894 117.5820007,0.6894 117.5820007,8.3046999 123.9593964,8.3046999 144.1992035,42.2635994 
			159.5682983,42.2635994 159.5682983,38.8983994 136.9277039,0.6894 		"/>
		<polygon points="267.1347046,34.6483994 267.1347046,8.3046999 271.9393921,8.3046999 267.4100952,0.6894 248.8202972,0.6894 
			248.8202972,8.3046999 253.0741882,8.3046999 253.0741882,16.6718006 242.2323914,16.6718006 242.2323914,8.3046999 
			246.5565948,8.3046999 246.5565948,0.6894 242.2323914,0.6894 228.1698914,0.6894 223.9160004,0.6894 223.9160004,8.3046999 
			228.1698914,8.3046999 228.1698914,34.6483994 223.9160004,34.6483994 223.9160004,42.2635994 246.5565948,42.2635994 
			246.5565948,34.6483994 242.2323914,34.6483994 242.2323914,25.8672009 253.0741882,25.8672009 253.0741882,34.6483994 
			248.8202972,34.6483994 248.8202972,42.2635994 267.4784851,42.2635994 272.0761108,34.6483994 		"/>
		<polygon points="189.3417969,42.2635994 204.3671112,42.2635994 204.3671112,29.1581993 197.1640015,29.1581993 		"/>
	</g>
	<g>
		<path d="M458.7150269,5.2499189c0,2.6650391-2.0917969,4.7568359-4.8144531,4.7568359
			c-2.6933594,0-4.8427734-2.0917969-4.8427734-4.7568359c0-2.6074221,2.1494141-4.6992188,4.8427734-4.6992188
			C456.62323,0.5507,458.7150269,2.6424968,458.7150269,5.2499189z M450.2619019,5.2499189
			c0,2.0917969,1.546875,3.7539062,3.6679688,3.7539062c2.0625,0,3.5810547-1.6621094,3.5810547-3.7255859
			c0-2.0917971-1.5185547-3.7822268-3.6103516-3.7822268S450.2619019,3.1864421,450.2619019,5.2499189z M453.1554565,7.7137861
			h-1.0888672V3.0145671c0.4296875-0.0859375,1.0322266-0.1435547,1.8056641-0.1435547
			c0.8886719,0,1.2890625,0.1435547,1.6328125,0.3447266c0.2587891,0.2001953,0.4589844,0.5722656,0.4589844,1.0312502
			c0,0.515625-0.4013672,0.9169922-0.9746094,1.0888672v0.0576172c0.4589844,0.171875,0.7167969,0.515625,0.8603516,1.1455078
			c0.1425781,0.7167969,0.2285156,1.0029297,0.34375,1.1748047h-1.1748047
			c-0.1435547-0.171875-0.2294922-0.6015625-0.3730469-1.1455078c-0.0859375-0.515625-0.3720703-0.7451172-0.9746094-0.7451172
			h-0.515625V7.7137861z M453.1847534,5.0497236h0.515625c0.6015625,0,1.0888672-0.2011719,1.0888672-0.6884766
			c0-0.4296877-0.3154297-0.7158206-1.0029297-0.7158206c-0.2871094,0-0.4873047,0.0283203-0.6015625,0.0566406V5.0497236z"/>
	</g>
</g>
</svg>
