<?xml version="1.0" encoding="utf-8"?>
<!-- Generator: Adobe Illustrator 25.2.0, SVG Export Plug-In . SVG Version: 6.00 Build 0)  -->
<svg version="1.1" id="Слой_1" xmlns="http://www.w3.org/2000/svg" xmlns:xlink="http://www.w3.org/1999/xlink" x="0px" y="0px"
	 viewBox="0 0 458.7 43.6" style="enable-background:new 0 0 458.7 43.6;" xml:space="preserve">
<style type="text/css">
	.st0{fill:#FFFFFF;}
</style>
<g>
	<g>
		<polygon class="st0" points="26.3,0.7 20.5,0.7 28.3,13.9 35.3,13.9 37.7,10.3 32,0.7 		"/>
		<polygon class="st0" points="56.7,7.7 52.5,0.7 44.7,0.7 42.5,0.7 34.6,0.7 42.5,13.9 42.5,34.6 38.3,34.6 38.3,42.2 62.9,42.2 
			62.9,34.6 56.7,34.6 		"/>
		<polygon class="st0" points="62.9,13.8 68.7,13.8 68.7,0.7 55.1,0.7 		"/>
		<path class="st0" d="M93.6,0h-2.3c-0.5,0-1.3,0.1-1.3,0.1l5.4,9.2c1.6,1.1,5.1,4.3,5.1,12.4c0,12.1-6.7,13.3-6.7,13.3l4.8,8
			c10.4-2.2,16.1-10.8,16.1-21.4C114.7,9.5,107,0.4,93.6,0z"/>
		<path class="st0" d="M84.4,21.7c0-11.9,6.4-12.6,7.5-12.6h0.6l-5.2-8.7C76.5,2.3,70.2,10.8,70.2,21.7c0,12.1,7.8,21.5,21.1,21.9
			h2.3l2.6-0.1l-5-8.4C90.3,34.8,84.4,32.9,84.4,21.7z"/>
		<path class="st0" d="M13.9,11.3c0-2.8,3.4-2.9,5.4-2.9h3.1l-4.8-8c-0.4,0-2.7,0.1-3,0.1C6.3,1.1,0.5,5.8,0.5,13
			c0,14.7,18.5,11.8,18.5,18c0,3.4-3.9,3.4-5.4,3.3l5.1,8.6c3.9,0,15.1-0.7,15.1-13.7C33.9,15.4,13.9,18.2,13.9,11.3z"/>
		<polygon class="st0" points="439.9,13.8 439.9,0.7 424.9,0.7 432.8,13.8 		"/>
		<polygon class="st0" points="0,29.2 0,42.3 15.8,42.3 8,29.2 		"/>
		<polygon class="st0" points="132.9,27.7 121.8,9 121.8,34.6 117.6,34.6 117.6,42.3 136.7,42.3 136.7,34.6 132.9,34.6 		"/>
		<polygon class="st0" points="396.7,13.8 396.7,0.7 381.7,0.7 389.6,13.8 		"/>
		<polygon class="st0" points="203.3,13.8 203.3,0.7 188.3,0.7 196.2,13.8 		"/>
		<polygon class="st0" points="311.2,13.8 311.2,0.7 296.2,0.7 304,13.8 		"/>
		<polygon class="st0" points="433.8,29.2 426,42.3 441,42.3 441,29.2 		"/>
		<path class="st0" d="M337.8,0.7c-1.2-0.1-4.9,0-6.1,0L336,8c4.8,0,8.5,3.8,8.5,13.7c0,9.3-3.1,13.2-8.1,13.5l4.1,6.9
			c12.2-1.3,18.3-7.9,18.3-20.4C358.8,8.6,351.4,1.7,337.8,0.7z"/>
		<polygon class="st0" points="297.2,42.3 312.2,42.3 312.2,29.2 305,29.2 		"/>
		<polygon class="st0" points="333.6,8.3 329.1,0.7 315.2,0.7 315.2,8.3 319.4,8.3 319.4,34.6 315.2,34.6 315.2,42.3 338.1,42.3 
			333.6,34.6 		"/>
		<path class="st0" d="M375.7,21.6c0-9.4,3-13,8-13.3l-4.7-7.8c-11.5,1.6-17.6,8.8-17.6,21c0,15.8,9.9,21.2,19.2,21.2
			c4.4,0,8.1-1.2,8.1-1.2l-4.3-7.2C379.1,34.3,375.7,31.3,375.7,21.6z"/>
		<polygon class="st0" points="383.5,28.5 386.6,28.5 386.6,33.7 391.8,42.3 399.5,42.3 399.5,28.5 399.5,28.5 399.5,21.3 
			383.5,21.3 		"/>
		<polygon class="st0" points="421,34.6 421,25.9 430.1,25.9 430.1,16.7 421,16.7 421,8.3 426.9,8.3 422.5,0.7 402.6,0.7 402.6,8.3 
			406.8,8.3 406.8,34.6 402.6,34.6 402.6,42.3 423.4,42.3 427.9,34.6 		"/>
		<polygon class="st0" points="292.2,34.6 292.2,25.9 301.6,25.9 301.6,16.7 292.2,16.7 292.2,8.3 298.1,8.3 293.7,0.7 270,0.7 
			274.5,8.3 278,8.3 278,34.6 274.6,34.6 270.1,42.3 294.6,42.3 299.2,34.6 		"/>
		<polygon class="st0" points="144.3,8.3 148.5,8.3 148.5,16 159.6,34.4 159.6,8.3 163.8,8.3 163.8,0.7 144.3,0.7 		"/>
		<polygon class="st0" points="184.4,34.6 184.4,25.9 193.8,25.9 193.8,16.7 184.4,16.7 184.4,8.3 190.3,8.3 185.8,0.7 165.9,0.7 
			165.9,8.3 170.2,8.3 170.2,34.6 165.9,34.6 165.9,42.3 186.7,42.3 191.3,34.6 		"/>
		<polygon class="st0" points="121.8,0.7 117.6,0.7 117.6,8.3 124,8.3 144.2,42.3 159.6,42.3 159.6,38.9 136.9,0.7 		"/>
		<polygon class="st0" points="267.1,34.6 267.1,8.3 271.9,8.3 267.4,0.7 248.8,0.7 248.8,8.3 253.1,8.3 253.1,16.7 242.2,16.7 
			242.2,8.3 246.6,8.3 246.6,0.7 242.2,0.7 228.2,0.7 223.9,0.7 223.9,8.3 228.2,8.3 228.2,34.6 223.9,34.6 223.9,42.3 246.6,42.3 
			246.6,34.6 242.2,34.6 242.2,25.9 253.1,25.9 253.1,34.6 248.8,34.6 248.8,42.3 267.5,42.3 272.1,34.6 		"/>
		<polygon class="st0" points="189.3,42.3 204.4,42.3 204.4,29.2 197.2,29.2 		"/>
	</g>
	<g>
		<path class="st0" d="M458.7,5.2c0,2.7-2.1,4.8-4.8,4.8c-2.7,0-4.8-2.1-4.8-4.8c0-2.6,2.1-4.7,4.8-4.7
			C456.6,0.6,458.7,2.6,458.7,5.2z M450.3,5.2c0,2.1,1.5,3.8,3.7,3.8c2.1,0,3.6-1.7,3.6-3.7c0-2.1-1.5-3.8-3.6-3.8
			S450.3,3.2,450.3,5.2z M453.2,7.7h-1.1V3c0.4-0.1,1-0.1,1.8-0.1c0.9,0,1.3,0.1,1.6,0.3c0.3,0.2,0.5,0.6,0.5,1c0,0.5-0.4,0.9-1,1.1
			v0.1c0.5,0.2,0.7,0.5,0.9,1.1c0.1,0.7,0.2,1,0.3,1.2H455c-0.1-0.2-0.2-0.6-0.4-1.1c-0.1-0.5-0.4-0.7-1-0.7h-0.5V7.7z M453.2,5h0.5
			c0.6,0,1.1-0.2,1.1-0.7c0-0.4-0.3-0.7-1-0.7c-0.3,0-0.5,0-0.6,0.1V5z"/>
	</g>
</g>
</svg>
